<?xml version="1.0" standalone="yes"?>
<svg width="161" height="234">
<path style="fill:#016436; stroke:none;" d="M0 0L0 234L149 234L149 229L156 229L156 217L161 217L161 0L0 0z"/>
<path style="fill:#479872; stroke:none;" d="M91.6667 10.3333L92.3333 10.6667L91.6667 10.3333z"/>
<path style="fill:#458d6c; stroke:none;" d="M36 101L36 102L39 102L36 101z"/>
<path style="fill:#ffffff; stroke:none;" d="M44 112C41.9213 112.602 39.1986 114.649 37.0054 114.249C32.7748 113.479 32.0819 107.963 35.2292 105.542C37.6137 103.707 40.479 105.382 43 106C33.0578 87.97 23.2619 125.941 40.7724 115.997C42.4705 115.033 43.0925 113.617 44 112z"/>
<path style="fill:#78ac94; stroke:none;" d="M72 102L73 106L74 106L72 102z"/>
<path style="fill:#bbd6c9; stroke:none;" d="M77.3333 102.667L77.6667 103.333L77.3333 102.667z"/>
<path style="fill:#ffffff; stroke:none;" d="M78.3333 102.667L78.6667 103.333L78.3333 102.667z"/>
<path style="fill:#bbd6c9; stroke:none;" d="M79.3333 102.667L79.6667 103.333L79.3333 102.667M36.6667 103.333L37.3333 103.667L36.6667 103.333z"/>
<path style="fill:#ffffff; stroke:none;" d="M71 103L71 117L75 117C73.5355 113.519 72.6587 111.155 75 108L75 107L75 106L71 103z"/>
<path style="fill:#88b7a1; stroke:none;" d="M31 104L32 105L31 104z"/>
<path style="fill:#78ac94; stroke:none;" d="M39 104L40 105L39 104z"/>
<path style="fill:#67a286; stroke:none;" d="M43.3333 105.667L43.6667 106.333L43.3333 105.667z"/>
<path style="fill:#458d6c; stroke:none;" d="M49 105L49 106L53 106L49 105M61 105L61 106L66 106L61 105M86 105L86 106L89 106L86 105M97 105L97 106L100 106L97 105M110 105L110 106L114 106L110 105z"/>
<path style="fill:#aacbbc; stroke:none;" d="M41.6667 106.333L42.3333 106.667L41.6667 106.333z"/>
<path style="fill:#78ac94; stroke:none;" d="M47 106L48 107L47 106z"/>
<path style="fill:#ffffff; stroke:none;" d="M46 109L54 110C49.1795 111.209 46.4242 111.556 46 117L56 117C55.9993 110.382 53.604 101.236 46 109M58 109L66 110C55.6784 112.588 58.8249 116.993 68 117C67.9993 110.382 65.604 101.236 58 109z"/>
<path style="fill:#458d6c; stroke:none;" d="M69.3333 106.667L69.6667 107.333L69.3333 106.667z"/>
<path style="fill:#78ac94; stroke:none;" d="M75.3333 106.667L75.6667 107.333L75.3333 106.667z"/>
<path style="fill:#bbd6c9; stroke:none;" d="M77 106L77 117L78 117L77 106z"/>
<path style="fill:#ffffff; stroke:none;" d="M78 106L78 117L79 117L78 106z"/>
<path style="fill:#bbd6c9; stroke:none;" d="M79 106L79 117L80 117L79 106M82 106L82 117L83 117L82 106z"/>
<path style="fill:#ffffff; stroke:none;" d="M83 106L83 117L84 117C84.2809 108.35 89.8958 108.181 90 117C92.8864 110.121 90.0676 106.084 83 106z"/>
<path style="fill:#88b7a1; stroke:none;" d="M90 106L91 107L90 106z"/>
<path style="fill:#ffffff; stroke:none;" d="M101 117L94 118L103 121L104 106C94.6075 106.033 89.7041 116.138 101 117M107 109L114 108L114 110C102.589 113.003 108.101 116.999 117 117C115.937 112.537 113.053 99.6644 107 109z"/>
<path style="fill:#88b7a1; stroke:none;" d="M46 107L47 108L46 107z"/>
<path style="fill:#bbd6c9; stroke:none;" d="M50.6667 107.333L51.3333 107.667L50.6667 107.333M62.6667 107.333L63.3333 107.667L62.6667 107.333M91 107L91 117L92 117L91 107M110 107L110 108L113 108L110 107M32 108L32 111L33 111L32 108z"/>
<path style="fill:#016436; stroke:none;" d="M61 108L61 110L66 110L61 108z"/>
<path style="fill:#458d6c; stroke:none;" d="M68 108L66 117L66 118C70.1754 117.105 69.8016 111.127 68 108z"/>
<path style="fill:#78ac94; stroke:none;" d="M73 108L73 115L74 115L73 108z"/>
<path style="fill:#016436; stroke:none;" d="M97 108L97 115C101.509 113.503 101.509 109.497 97 108M109 108L109 110L114 110L109 108z"/>
<path style="fill:#78ac94; stroke:none;" d="M113 108L114 109L113 108M116 108L116 116L117 116L116 108M46.6667 109.333L47.3333 109.667L46.6667 109.333M53 109L54 110L53 109M58 109L58 110L61 110L58 109z"/>
<path style="fill:#bbd6c9; stroke:none;" d="M89 109L89 117L90 117L89 109z"/>
<path style="fill:#569879; stroke:none;" d="M96 109L96 114L97 114L96 109z"/>
<path style="fill:#78ac94; stroke:none;" d="M107.667 109.333L108.333 109.667L107.667 109.333M50 110L50 111L53 111L50 110z"/>
<path style="fill:#67a286; stroke:none;" d="M61 110L61 111L65 111L61 110z"/>
<path style="fill:#bbd6c9; stroke:none;" d="M84 110L84 117L85 117L84 110z"/>
<path style="fill:#458d6c; stroke:none;" d="M93 110L93 113L94 113L93 110z"/>
<path style="fill:#78ac94; stroke:none;" d="M101 110L101 113L102 113L101 110z"/>
<path style="fill:#569879; stroke:none;" d="M109.667 110.333L110.333 110.667L109.667 110.333z"/>
<path style="fill:#99c1af; stroke:none;" d="M111.667 110.333L112.333 110.667L111.667 110.333z"/>
<path style="fill:#78ac94; stroke:none;" d="M107 111L108 112L107 111z"/>
<path style="fill:#458d6c; stroke:none;" d="M30.3333 112.667L30.6667 113.333L30.3333 112.667z"/>
<path style="fill:#aacbbc; stroke:none;" d="M49.6667 112.333L50.3333 112.667L49.6667 112.333z"/>
<path style="fill:#67a286; stroke:none;" d="M51.6667 112.333L52.3333 112.667L51.6667 112.333z"/>
<path style="fill:#aacbbc; stroke:none;" d="M53.3333 112.667L53.6667 113.333L53.3333 112.667z"/>
<path style="fill:#bbd6c9; stroke:none;" d="M61.6667 112.333L62.3333 112.667L61.6667 112.333z"/>
<path style="fill:#78ac94; stroke:none;" d="M63 112L63 113L66 114L63 112z"/>
<path style="fill:#88b7a1; stroke:none;" d="M110 112L110 113L113 113L110 112z"/>
<path style="fill:#016436; stroke:none;" d="M113 112L109 113L109 115L113 112z"/>
<path style="fill:#78ac94; stroke:none;" d="M40 113L41 114L40 113z"/>
<path style="fill:#458d6c; stroke:none;" d="M43.3333 113.667L43.6667 114.333L43.3333 113.667z"/>
<path style="fill:#78ac94; stroke:none;" d="M45 113L45 116L46 116L45 113z"/>
<path style="fill:#016436; stroke:none;" d="M48 113L48 115L53 114L48 113z"/>
<path style="fill:#78ac94; stroke:none;" d="M60 113L63 116L63 115L60 113z"/>
<path style="fill:#016436; stroke:none;" d="M61 113L61 115L65 115L65 113L61 113z"/>
<path style="fill:#aacbbc; stroke:none;" d="M108.333 113.667L108.667 114.333L108.333 113.667z"/>
<path style="fill:#78ac94; stroke:none;" d="M52 114L53 115L52 114M36.6667 115.333L37.3333 115.667L36.6667 115.333M42 115L43 116L42 115z"/>
<path style="fill:#88b7a1; stroke:none;" d="M49.6667 115.333L50.3333 115.667L49.6667 115.333z"/>
<path style="fill:#569879; stroke:none;" d="M74 115L72 117L72 118C74.4797 117.809 77.1768 116.784 74 115z"/>
<path style="fill:#78ac94; stroke:none;" d="M109 115L109 116L112 116L109 115M35 117L35 118L40 118L35 117M48 117L48 118L52 118L48 117M60 117L60 118L64 118L60 117z"/>
<path style="fill:#458d6c; stroke:none;" d="M77 117L77 118L80 118L77 117M82 117L82 118L85 118L82 117M89 117L89 118L92 118L89 117z"/>
<path style="fill:#78ac94; stroke:none;" d="M108 117L108 118L113 118L108 117z"/>
<path style="fill:#458d6c; stroke:none;" d="M114 117L114 118L117 118L114 117z"/>
<path style="fill:#78ac94; stroke:none;" d="M96 118L97 119L96 118M103.333 118.667L103.667 119.333L103.333 118.667z"/>
<path style="fill:#bbd6c9; stroke:none;" d="M96 121L96 122L101 122L96 121z"/>
<path style="fill:#ededed; stroke:none;" d="M156 217L156 229L149 229L149 234L161 234L161 217L156 217z"/>
</svg>
