<?xml version="1.0" standalone="yes"?>
<svg width="319" height="388">
<path style="fill:#023605; stroke:none;" d="M0 0L0 113L1 113L1 103L60 103L62 122L92 120L92 113L104 113L104 106L117 106L117 98L128 98L128 90C134.774 89.9948 138.769 89.6298 139 82L143 82L144 70L157 70L157 62L161 62L161 38L188 38L188 31L199 31L199 18L210 18L210 8L220 8L223 1L202 0L157 0L0 0z"/>
<path style="fill:#9ac537; stroke:none;" d="M220 1L220 8L210 8L210 18L199 18L199 31L188 31L188 38L161 38L161 62L157 62L157 70L144 70L143 82L139 82C138.511 89.1335 134.412 89.978 128 90L128 98L117 98L117 106L104 106L104 113L92 113L92 120L62 122L60 103L1 103L0 388L103 388L103 382L107 382L107 388L254 388L254 379L265 379L265 373L269 373L269 368L281 366L281 359L292 359L292 354L298 354L298 351L312 351L312 346L319 346L319 0C287.286 0 251.168 -4.78616 220 1z"/>
<path style="fill:#5e9f37; stroke:none;" d="M301 72L301 76L293 74L302 77L301 72M292 77L292 84C283.451 87.093 283.021 100.392 283 108L291 106L293 117L285 116L279 129L285 135L291 134L291 133L283 130L285 118C296.383 121.264 292.077 111.995 292 105L284 106C284.595 98.4689 285.971 89.2103 293 85L292 77z"/>
<path style="fill:#2a350f; stroke:none;" d="M143 223L143 224L150 224L143 223z"/>
<path style="fill:#536a1e; stroke:none;" d="M218 223L218 224L221 224L218 223z"/>
<path style="fill:#010101; stroke:none;" d="M155 237L151 236C142.244 253.295 137.368 215.08 151 230L154 229C151.611 222.756 140.301 221.627 138.318 229.044C135.03 241.343 150.49 249.542 155 237z"/>
<path style="fill:#719129; stroke:none;" d="M217 224L217 230L218 230L217 224z"/>
<path style="fill:#010101; stroke:none;" d="M218 224L218 230C210.911 227.988 204.233 234.892 210.09 241.397C212.443 244.01 217.843 243 221 243L221 224L218 224z"/>
<path style="fill:#536a1e; stroke:none;" d="M162 228L162 229L166 229L162 228M178 228L178 229L181 229L178 228M187 228L187 229L191 229L187 228M196 228L196 229L202 229L196 228M212 228L212 229L216 229L212 228M229 228L229 229L233 229L229 228z"/>
<path style="fill:#2a350f; stroke:none;" d="M137 229L137 236L138 236L137 229z"/>
<path style="fill:#3e4f17; stroke:none;" d="M152.667 229.333L153.333 229.667L152.667 229.333z"/>
<path style="fill:#010101; stroke:none;" d="M171 239C166.716 239.507 163.459 241.306 161 237L170 237C169.752 229.388 159.407 224.979 157.333 234.019C155.289 242.933 166.788 245.866 171 239z"/>
<path style="fill:#719129; stroke:none;" d="M173 229L173 243L174 243L173 229z"/>
<path style="fill:#010101; stroke:none;" d="M174 229L174 243L177 243C177.001 237.795 176.2 232.761 182 231L182 229L174 229z"/>
<path style="fill:#2a350f; stroke:none;" d="M183 229L183 243L184 243L183 229z"/>
<path style="fill:#010101; stroke:none;" d="M184 229L184 243L186 243L191 229L184 229M193 233L202 232L202 234C187.923 237.52 195.525 243 206 243C205.355 239.528 205.929 234.429 204.397 231.318C201.968 226.387 194.864 229.62 193 233M227.148 230.028C219.67 234.438 227.141 246.984 234.682 241.972C241.198 237.642 235.055 225.365 227.148 230.028z"/>
<path style="fill:#678425; stroke:none;" d="M162 231L162 232L166 232L162 231z"/>
<path style="fill:#5d7721; stroke:none;" d="M178 231L178 232L182 232L178 231z"/>
<path style="fill:#485c1a; stroke:none;" d="M188 231L188 232L191 232L188 231z"/>
<path style="fill:#719129; stroke:none;" d="M197 231L197 232L201 232L197 231z"/>
<path style="fill:#536a1e; stroke:none;" d="M205 231L205 241L206 241L205 231z"/>
<path style="fill:#9ac537; stroke:none;" d="M213.545 232.176C211.008 233.782 212.105 241.946 215.455 239.824C217.992 238.218 216.895 230.054 213.545 232.176M229.584 232.176C226.461 234.007 228.411 242.584 232.416 239.762C235.231 237.779 233.26 230.022 229.584 232.176M161 232L161 234L167 234L167 232L161 232z"/>
<path style="fill:#2a350f; stroke:none;" d="M160 233L167 235L167 234L160 233M170 233L170 237L171 237L170 233z"/>
<path style="fill:#536a1e; stroke:none;" d="M186 233C185.997 236.987 186.598 240.668 183 243L183 244L187 244L186 233M193 233L193 234L196 234L193 233z"/>
<path style="fill:#719129; stroke:none;" d="M211 233L211 239L212 239L211 233z"/>
<path style="fill:#2a350f; stroke:none;" d="M237 233L237 239L238 239L237 233z"/>
<path style="fill:#536a1e; stroke:none;" d="M198 234L198 235L201 235L198 234z"/>
<path style="fill:#719129; stroke:none;" d="M217 234L217 238L218 238L217 234M227 234L227 239L228 239L227 234z"/>
<path style="fill:#536a1e; stroke:none;" d="M234 234L234 238L235 238L234 234z"/>
<path style="fill:#5d7721; stroke:none;" d="M153.667 236.333L154.333 236.667L153.667 236.333z"/>
<path style="fill:#9ac537; stroke:none;" d="M196 241L202 237L196 241z"/>
<path style="fill:#536a1e; stroke:none;" d="M192 238L192 241L193 241L192 238z"/>
<path style="fill:#485c1a; stroke:none;" d="M208.333 238.667L208.667 239.333L208.333 238.667z"/>
<path style="fill:#2a350f; stroke:none;" d="M143 243L143 244L150 244L143 243M161 243L161 244L166 244L161 243z"/>
<path style="fill:#536a1e; stroke:none;" d="M174 243L174 244L177 244L174 243z"/>
<path style="fill:#2a350f; stroke:none;" d="M195 243L195 244L200 244L195 243z"/>
<path style="fill:#536a1e; stroke:none;" d="M203 243L203 244L206 244L203 243z"/>
<path style="fill:#2a350f; stroke:none;" d="M212 243L212 244L216 244L212 243z"/>
<path style="fill:#536a1e; stroke:none;" d="M218 243L218 244L221 244L218 243z"/>
<path style="fill:#2a350f; stroke:none;" d="M228 243L228 244L233 244L228 243z"/>
<path style="fill:#f4ce01; stroke:none;" d="M312 346L312 351L298 351L298 354L292 354L292 359L281 359L281 363C286.805 363.249 292.023 365.26 296 360L297 363C310.821 363 318.988 362.102 319 346L312 346z"/>
<path style="fill:#ededed; stroke:none;" d="M317 355C317.617 368.226 290.509 363.281 281 363L281 366C276.36 366.614 270.583 368.233 269 373L265 373L265 379L254 379L254 388L319 388L319 355L317 355z"/>
<path style="fill:#fff2ab; stroke:none;" d="M316 356L314 363C317.815 361.722 317.936 359.308 316 356z"/>
<path style="fill:#f9f27e; stroke:none;" d="M295 360L295 363L297 363L297 360L295 360z"/>
<path style="fill:#f3ef71; stroke:none;" d="M287 364L287 365L292 365L287 364z"/>
<path style="fill:#dbd26d; stroke:none;" d="M269 368L269 370L272 370L272 368L269 368z"/>
<path style="fill:#f1f852; stroke:none;" d="M255 379L255 380L260 381L260 379L255 379z"/>
<path style="fill:#f4ce01; stroke:none;" d="M103 382L103 388L107 388L107 382L103 382z"/>
</svg>
