<?xml version="1.0" standalone="yes"?>
<svg width="367" height="430">
<path style="fill:#ffffff; stroke:none;" d="M0 0L0 142L6 142L6 0L0 0z"/>
<path style="fill:#023605; stroke:none;" d="M6 0L6 142L0 142C0 158.166 -3.19301 177.517 4 192C11.33 193.027 10.6753 197.874 11.2847 204C12.3987 215.198 11.0577 231.119 8 242L16 242L16 233L27 233L27 223L37 223L37 214L44 214L44 205L106 204L107 252L116 260C119.258 254.675 126.469 256 132 256C147.694 256 163.372 255.002 179 255L179 246L185 246L185 237L190 237L190 223L196 223L196 209L202 209L202 196L208 196L208 184L215 184L215 172L226 172L226 160L236 160L236 151L244 151L246 144L249 144L249 135L257 135L261 106L268 106L268 96L276 96C276.005 89.3467 276.337 84.5255 284 84L284 80L336 80L336 22L362 22L357.296 1.02777L333 0L268 0L6 0z"/>
<path style="fill:#aac66f; stroke:none;" d="M358.333 0.666656L358.667 1.33334L358.333 0.666656z"/>
<path style="fill:#ffffd8; stroke:none;" d="M359 0L362 13L364 13L362 0L359 0z"/>
<path style="fill:#ededed; stroke:none;" d="M362 0L365 26L367 26L367 0L362 0z"/>
<path style="fill:#4f773e; stroke:none;" d="M359.333 3.66666L359.667 4.33334L359.333 3.66666z"/>
<path style="fill:#d3ce2c; stroke:none;" d="M360 5L359 11L361 11L360 5z"/>
<path style="fill:#dae08a; stroke:none;" d="M361 7L361 11L362 11L361 7z"/>
<path style="fill:#e7d600; stroke:none;" d="M359 11L359 19L362 19L361 11L359 11z"/>
<path style="fill:#dbd235; stroke:none;" d="M361 11L360 19L360 20L364 22L361 11z"/>
<path style="fill:#fffca3; stroke:none;" d="M363 13L364 23L365 23L363 13z"/>
<path style="fill:#f4ce01; stroke:none;" d="M336 22L336 80L284 80L284 84C275.856 84.2471 276.001 89.0017 276 96L268 96L268 106L261 106L257 135L249 135L249 144L246 144L244 151L236 151L236 160L226 160L226 172L215 172L215 184L208 184L208 196L202 196L202 209L196 209L196 223L190 223L190 237L185 237L185 246L179 246L179 255L116 257L123 268L122 268L106 249L105 249L98 253L98 252C105.687 251.408 105.997 245.515 106 239L106 204L44 205L44 214L37 214L37 223L27 223L27 233L16 233L16 242L5 242L5 251L0 251L0 430L175 430L175 386L140 383L140 380L182 380L182 377L195 377L195 372L207 372L207 365L219 365L219 357L230 357L230 349L240 349L240 339L260 339L263 336L263 331L276 331L276 319L284 319L284 305L289 305L289 296L308 296L308 283L321 283L321 275L333 275L333 265L340 265L340 81L366 80L366 38C366 33.8908 367.386 25.8146 363.486 23.0278C358.024 19.1251 342.617 22 336 22z"/>
<path style="fill:#76a475; stroke:none;" d="M366 26L366 37L367 37L366 26z"/>
<path style="fill:#ededed; stroke:none;" d="M366 37L366 80L343 80C335.974 97.2917 340 121.365 340 140L340 265L333 265L333 275L321 275L321 283L308 283L308 296L289 296L289 305L284 305L284 319L276 319L276 331L263 331L263 336L260 339L240 339L240 349L230 349L230 357L219 357L219 365L207 365L207 372L195 372L195 377L182 377L182 380L140 380L140 383L175 386L175 430L367 430L367 152L367 72L366 37z"/>
<path style="fill:#bad15a; stroke:none;" d="M335.333 59.6667L335.667 60.3333L335.333 59.6667z"/>
<path style="fill:#a1af2c; stroke:none;" d="M339.333 64.6667L339.667 65.3333L339.333 64.6667z"/>
<path style="fill:#f5c362; stroke:none;" d="M340 81L340 85L341 85L343 81L340 81z"/>
<path style="fill:#015627; stroke:none;" d="M199 171L197 178C200.066 176.003 201.367 174.7 201 171L199 171z"/>
<path style="fill:#c46d1e; stroke:none;" d="M0 187L4 191L0 187z"/>
<path style="fill:#ed1e0a; stroke:none;" d="M0 190L10 216C15.3261 204.917 11.9396 192.972 0 190z"/>
<path style="fill:#8f9728; stroke:none;" d="M5 192L5 193L9 193L5 192z"/>
<path style="fill:#fb0102; stroke:none;" d="M0 197L0 251L5 251L5 242C10.6148 240.154 9.93774 233.094 9.62886 228C8.85311 215.206 8.52972 208.478 2 197L0 197z"/>
<path style="fill:#f7de9c; stroke:none;" d="M289.333 200.667L289.667 201.333L289.333 200.667z"/>
<path style="fill:#d74a15; stroke:none;" d="M9 218L9 227L10 227L9 218z"/>
<path style="fill:#3b541a; stroke:none;" d="M9 231L9 235L10 235L9 231z"/>
<path style="fill:#9a9502; stroke:none;" d="M104 248L98 252L98 253C101.692 252.88 103.777 252.687 105 249L106 249L106 252L107 252L107 248L104 248M107 252L107 253L122 268L123 268L107 252M178 258L178 262L179 262L179 259L183 259L178 258z"/>
<path style="fill:#d0ba04; stroke:none;" d="M77 259L64 277C67.7273 275.099 77.4473 263.107 77 259z"/>
<path style="fill:#9a9502; stroke:none;" d="M121 290L125 299L122 301L121 301L120 292L119 292L120 302L126 300L121 290z"/>
<path style="fill:#ece3a8; stroke:none;" d="M251 293L252 294L251 293z"/>
<path style="fill:#c8b403; stroke:none;" d="M86 302L86 303L94 303L86 302z"/>
<path style="fill:#000000; stroke:none;" d="M15 345L15 362L31 362L30 346L22 355L21 345L15 345M122 345L121 360L125 360L125 361L122 361L122 362L153 362L153 345L135 345L135 349L126 351L122 345z"/>
<path style="fill:#b39701; stroke:none;" d="M123 345L123 349L124 349L123 345M126 345L129 348L129 347L126 345z"/>
<path style="fill:#000000; stroke:none;" d="M127 345L127 347L129 347L129 345L127 345z"/>
<path style="fill:#826e01; stroke:none;" d="M30 346L30 356L31 356L30 346M47 346L48 350L49 350L47 346z"/>
<path style="fill:#000000; stroke:none;" d="M69 361C76.5479 356.336 75.3534 358.449 83 361C82.105 357.728 79.8226 347.594 75.8333 346.921C71.2289 346.145 69.3053 357.953 69 361M86 346L83 350L83 351L83 352L85 361L89 361L86 346z"/>
<path style="fill:#826e01; stroke:none;" d="M90 346L90 361L91 361L90 346z"/>
<path style="fill:#000000; stroke:none;" d="M91 346L91 361L93 361L93 346L91 346M97 349L104 349C101.304 346.355 99.6957 346.355 97 349z"/>
<path style="fill:#514500; stroke:none;" d="M26.3333 347.667L26.6667 348.333L26.3333 347.667z"/>
<path style="fill:#000000; stroke:none;" d="M46 347C45.3009 351.898 44.4955 359.173 50 361L50 352L50 351L50 350L46 347z"/>
<path style="fill:#826e01; stroke:none;" d="M84 347L84 350L85 350L84 347z"/>
<path style="fill:#b39701; stroke:none;" d="M99 349L99 350L104 350L99 349z"/>
<path style="fill:#726000; stroke:none;" d="M119.333 349.667L119.667 350.333L119.333 349.667z"/>
<path style="fill:#7d6a05; stroke:none;" d="M126 349L127 350L126 349z"/>
<path style="fill:#000000; stroke:none;" d="M33 353L40 352C34.0364 358.221 31.5088 360.991 43 361C42.9993 354.479 40.5309 345.317 33 353z"/>
<path style="fill:#726000; stroke:none;" d="M41 350L42 351L41 350z"/>
<path style="fill:#927c01; stroke:none;" d="M44.3333 350.667L44.6667 351.333L44.3333 350.667z"/>
<path style="fill:#000000; stroke:none;" d="M52 354L59 352L52 361L62 361C60.9381 356.542 56.4913 342.827 52 354z"/>
<path style="fill:#826e01; stroke:none;" d="M60 350L61 351L60 350z"/>
<path style="fill:#f4ce01; stroke:none;" d="M75 350C74.1456 352.697 74.1492 353.386 77 354L75 350z"/>
<path style="fill:#726000; stroke:none;" d="M88 350L87 352L89 352L88 350z"/>
<path style="fill:#b39701; stroke:none;" d="M93 350L93 361L94 361L93 350z"/>
<path style="fill:#000000; stroke:none;" d="M96 354L103 352C96.5144 358.739 93.5631 360.999 106 361C105.005 356.821 99.8238 342.479 96 354M108 350L108 361L110 361C110.054 356.461 110.298 353.428 115 352L115 361L117 361C116.999 353.054 116.574 350.03 108 350z"/>
<path style="fill:#927c01; stroke:none;" d="M27 351L27 354L28 354L27 351z"/>
<path style="fill:#826e01; stroke:none;" d="M52 351L53 352L52 351z"/>
<path style="fill:#b39701; stroke:none;" d="M120 351L120 359L121 359L120 351M123 351L123 358L124 358L123 351z"/>
<path style="fill:#efce10; stroke:none;" d="M124 351L124 358L125 358L124 351z"/>
<path style="fill:#f4ce01; stroke:none;" d="M36 352L36 354L40 354L40 352L36 352z"/>
<path style="fill:#826e01; stroke:none;" d="M48 352L48 359L49 359L48 352z"/>
<path style="fill:#413700; stroke:none;" d="M61 352L61 360L62 360L61 352z"/>
<path style="fill:#826e01; stroke:none;" d="M84 352L84 360L85 360L84 352M105 352L105 360L106 360L105 352M111 352L112 353L111 352M114 352L115 353L114 352z"/>
<path style="fill:#413700; stroke:none;" d="M117 352L117 361L118 361L117 352z"/>
<path style="fill:#514500; stroke:none;" d="M33 353L33 354L36 354L33 353z"/>
<path style="fill:#413700; stroke:none;" d="M110 353L110 361L111 361L110 353z"/>
<path style="fill:#927c01; stroke:none;" d="M36 354L36 355L39 355L36 354z"/>
<path style="fill:#726000; stroke:none;" d="M56.6667 354.333L57.3333 354.667L56.6667 354.333z"/>
<path style="fill:#b39701; stroke:none;" d="M73 354L73 355L77 355L73 354z"/>
<path style="fill:#625200; stroke:none;" d="M100.667 354.333L101.333 354.667L100.667 354.333z"/>
<path style="fill:#927c01; stroke:none;" d="M37 356L37 357L40 357L37 356z"/>
<path style="fill:#826e01; stroke:none;" d="M55 356L55 357L58 357L55 356z"/>
<path style="fill:#f4ce01; stroke:none;" d="M58 356L55 359C57.348 358.706 58.951 358.507 58 356z"/>
<path style="fill:#413700; stroke:none;" d="M73 356L73 357L78 357L73 356z"/>
<path style="fill:#a38901; stroke:none;" d="M99 356L99 357L103 358L99 356z"/>
<path style="fill:#726000; stroke:none;" d="M35.3333 357.667L35.6667 358.333L35.3333 357.667z"/>
<path style="fill:#f4ce01; stroke:none;" d="M36 360L40 357L36 360z"/>
<path style="fill:#b39701; stroke:none;" d="M51 357L47 361L47 362C50.1567 361.454 51.9195 360.35 51 357z"/>
<path style="fill:#a38901; stroke:none;" d="M54.3333 357.667L54.6667 358.333L54.3333 357.667z"/>
<path style="fill:#f4ce01; stroke:none;" d="M98 357L98 359L102 359L102 357L98 357z"/>
<path style="fill:#a38901; stroke:none;" d="M55.6667 359.333L56.3333 359.667L55.6667 359.333z"/>
<path style="fill:#927c01; stroke:none;" d="M71.3333 359.667L71.6667 360.333L71.3333 359.667M99.6667 359.333L100.333 359.667L99.6667 359.333z"/>
<path style="fill:#b39701; stroke:none;" d="M43 360L41 361L41 362L43 360z"/>
<path style="fill:#726000; stroke:none;" d="M46 360L47 361L46 360z"/>
<path style="fill:#b39701; stroke:none;" d="M68 360L71 362L71 361L68 360z"/>
<path style="fill:#ad9612; stroke:none;" d="M122 360L122 361L125 361L122 360z"/>
<path style="fill:#826e01; stroke:none;" d="M35 361L35 362L39 362L35 361M54 361L54 362L58 362L54 361z"/>
<path style="fill:#b39701; stroke:none;" d="M85 361L85 362L89 362L85 361z"/>
<path style="fill:#826e01; stroke:none;" d="M97 361L97 362L101 362L97 361z"/>
<path style="fill:#f0e69f; stroke:none;" d="M122 371L122 378L123 378L122 371z"/>
</svg>
